# xmcd
#
# Track frame offsets:
#	150
#	12110
#	34971
#	54241
#	82352
#	100613
#	124372
#	144674
#
# Disc length: 2046 seconds
#
# Revision: 0
# Processed by: cddbd v1.5.2PL0 Copyright (c) Steve Scherf et al.
# Submitted via: audiograbber 1.83.01
#
DISCID=6907fc08
DTITLE=Jörg Lesse - Good old Blues Songs
DYEAR=1998
DGENRE=Blues
TTITLE0=Sign
TTITLE1=Lonely Stranger
TTITLE2=Before you accuse me
TTITLE3=Rock´n Roll Feeling
TTITLE4=Brückenschläfer
TTITLE5=Old Love
TTITLE6=Tears in Heaven
TTITLE7=Das Loch in der Banane
EXTD=
EXTT0=
EXTT1=
EXTT2=
EXTT3=
EXTT4=
EXTT5=
EXTT6=
EXTT7=
PLAYORDER=
